<?xml version="1.0" encoding="utf-8"?>
<!-- Generator: Adobe Illustrator 25.0.0, SVG Export Plug-In . SVG Version: 6.00 Build 0)  -->
<svg version="1.1" id="Layer_1" xmlns="http://www.w3.org/2000/svg" xmlns:xlink="http://www.w3.org/1999/xlink" x="0px" y="0px"
	 viewBox="0 0 1548 595" style="enable-background:new 0 0 1548 595;" xml:space="preserve">
<style type="text/css">
	.st0{enable-background:new    ;}
	.st1{fill:#007A3E;}
	.st2{fill:#58595B;}
	.st3{fill-rule:evenodd;clip-rule:evenodd;fill:#007A3E;}
	.st4{fill-rule:evenodd;clip-rule:evenodd;fill:#007C3F;}
</style>
<g>
	<g>
		<g class="st0">
			<path class="st1" d="M687.59,247.74h-33.67l-13.39-34.82h-61.28l-12.65,34.82h-32.84l59.71-153.31h32.73L687.59,247.74z
				 M630.6,187.09l-21.12-56.89l-20.71,56.89H630.6z"/>
			<path class="st1" d="M704.85,247.74V95.69h30.96v126.22h76.97v25.83H704.85z"/>
			<path class="st1" d="M834.84,247.74V94.43h113.68v25.93h-82.72v33.99h76.97v25.83h-76.97v41.73h85.65v25.83H834.84z"/>
			<path class="st1" d="M1115.94,247.74h-33.67l-13.39-34.82h-61.28l-12.65,34.82h-32.84l59.71-153.31h32.73L1115.94,247.74z
				 M1058.95,187.09l-21.12-56.89l-20.71,56.89H1058.95z"/>
			<path class="st1" d="M1132.36,247.74V94.43h49.67c18.82,0,31.09,0.77,36.81,2.3c8.78,2.3,16.14,7.3,22.07,15.01
				c5.92,7.7,8.89,17.66,8.89,29.86c0,9.41-1.71,17.33-5.12,23.74c-3.42,6.42-7.76,11.45-13.02,15.11
				c-5.26,3.66-10.62,6.08-16.05,7.27c-7.39,1.46-18.09,2.2-32.11,2.2h-20.18v57.83H1132.36z M1163.31,120.37v43.5h16.94
				c12.2,0,20.36-0.8,24.47-2.41c4.11-1.6,7.34-4.11,9.67-7.53s3.5-7.39,3.5-11.92c0-5.58-1.64-10.18-4.92-13.8
				c-3.28-3.62-7.42-5.89-12.44-6.8c-3.7-0.7-11.12-1.05-22.28-1.05H1163.31z"/>
		</g>
		<g class="st0">
			<path class="st2" d="M599,370.91h-14.28l-5.68-14.77h-25.99l-5.37,14.77h-13.93l25.33-65.02h13.88L599,370.91z M574.83,345.18
				l-8.96-24.13l-8.78,24.13H574.83z"/>
			<path class="st2" d="M601.48,357.47l12.51-1.91c0.53,2.42,1.61,4.26,3.24,5.52c1.63,1.26,3.9,1.88,6.83,1.88
				c3.22,0,5.65-0.59,7.27-1.77c1.09-0.83,1.64-1.94,1.64-3.33c0-0.95-0.3-1.73-0.89-2.35c-0.62-0.59-2.01-1.14-4.17-1.64
				c-10.05-2.22-16.43-4.24-19.12-6.08c-3.73-2.54-5.59-6.08-5.59-10.6c0-4.08,1.61-7.51,4.83-10.29c3.22-2.78,8.22-4.17,14.99-4.17
				c6.45,0,11.24,1.05,14.37,3.15c3.13,2.1,5.29,5.21,6.48,9.31l-11.75,2.17c-0.5-1.83-1.46-3.24-2.86-4.21
				c-1.4-0.98-3.41-1.46-6.01-1.46c-3.28,0-5.63,0.46-7.05,1.38c-0.95,0.65-1.42,1.49-1.42,2.53c0,0.89,0.41,1.64,1.24,2.26
				c1.12,0.83,5,2,11.64,3.5c6.64,1.51,11.27,3.36,13.9,5.54c2.6,2.22,3.9,5.31,3.9,9.27c0,4.32-1.8,8.03-5.41,11.13
				c-3.61,3.1-8.94,4.66-16.01,4.66c-6.42,0-11.5-1.3-15.24-3.9C605.08,365.47,602.64,361.93,601.48,357.47z"/>
			<path class="st2" d="M652,357.47l12.51-1.91c0.53,2.42,1.61,4.26,3.24,5.52c1.63,1.26,3.9,1.88,6.83,1.88
				c3.22,0,5.65-0.59,7.27-1.77c1.09-0.83,1.64-1.94,1.64-3.33c0-0.95-0.3-1.73-0.89-2.35c-0.62-0.59-2.01-1.14-4.17-1.64
				c-10.05-2.22-16.43-4.24-19.12-6.08c-3.73-2.54-5.59-6.08-5.59-10.6c0-4.08,1.61-7.51,4.83-10.29c3.22-2.78,8.22-4.17,14.99-4.17
				c6.45,0,11.24,1.05,14.37,3.15c3.13,2.1,5.29,5.21,6.48,9.31l-11.75,2.17c-0.5-1.83-1.46-3.24-2.86-4.21
				c-1.4-0.98-3.41-1.46-6.01-1.46c-3.28,0-5.63,0.46-7.05,1.38c-0.95,0.65-1.42,1.49-1.42,2.53c0,0.89,0.41,1.64,1.24,2.26
				c1.12,0.83,5,2,11.64,3.5c6.64,1.51,11.27,3.36,13.9,5.54c2.6,2.22,3.9,5.31,3.9,9.27c0,4.32-1.8,8.03-5.41,11.13
				c-3.61,3.1-8.94,4.66-16.01,4.66c-6.42,0-11.5-1.3-15.24-3.9C655.6,365.47,653.16,361.93,652,357.47z"/>
			<path class="st2" d="M704.03,346.69c0-4.14,1.02-8.15,3.06-12.02c2.04-3.87,4.93-6.83,8.67-8.87c3.74-2.04,7.92-3.06,12.53-3.06
				c7.13,0,12.97,2.31,17.52,6.94c4.55,4.63,6.83,10.47,6.83,17.54c0,7.13-2.3,13.03-6.9,17.72c-4.6,4.69-10.39,7.03-17.36,7.03
				c-4.32,0-8.44-0.98-12.35-2.93c-3.92-1.95-6.9-4.81-8.94-8.58C705.05,356.69,704.03,352.1,704.03,346.69z M716.8,347.35
				c0,4.67,1.11,8.25,3.33,10.73c2.22,2.48,4.95,3.73,8.21,3.73c3.25,0,5.98-1.24,8.18-3.73c2.2-2.48,3.3-6.09,3.3-10.82
				c0-4.61-1.1-8.16-3.3-10.65c-2.2-2.48-4.93-3.73-8.18-3.73c-3.25,0-5.99,1.24-8.21,3.73C717.91,339.11,716.8,342.68,716.8,347.35
				z"/>
			<path class="st2" d="M803.47,337.73l-12.29,2.22c-0.41-2.45-1.35-4.3-2.82-5.54c-1.46-1.24-3.36-1.86-5.7-1.86
				c-3.1,0-5.58,1.07-7.43,3.22s-2.77,5.73-2.77,10.75c0,5.59,0.94,9.54,2.82,11.84c1.88,2.31,4.4,3.46,7.56,3.46
				c2.37,0,4.3-0.67,5.81-2.02c1.51-1.34,2.57-3.66,3.19-6.94l12.24,2.08c-1.27,5.62-3.71,9.86-7.32,12.73
				c-3.61,2.87-8.44,4.3-14.5,4.3c-6.89,0-12.38-2.17-16.48-6.52c-4.1-4.35-6.14-10.36-6.14-18.05c0-7.78,2.05-13.83,6.17-18.16
				c4.11-4.33,9.67-6.5,16.68-6.5c5.74,0,10.3,1.23,13.68,3.7C799.56,328.91,801.99,332.67,803.47,337.73z"/>
			<path class="st2" d="M812.92,317.42v-11.53h12.46v11.53H812.92z M812.92,370.91v-47.1h12.46v47.1H812.92z"/>
			<path class="st2" d="M847.47,338.17l-11.31-2.04c1.27-4.55,3.46-7.92,6.56-10.11c3.1-2.19,7.72-3.28,13.84-3.28
				c5.56,0,9.7,0.66,12.42,1.97s4.63,2.99,5.74,5.01s1.66,5.74,1.66,11.15l-0.13,14.55c0,4.14,0.2,7.19,0.6,9.16
				c0.4,1.97,1.15,4.07,2.24,6.32h-12.33c-0.33-0.83-0.72-2.05-1.2-3.68c-0.21-0.74-0.36-1.23-0.44-1.46
				c-2.13,2.07-4.41,3.62-6.83,4.66c-2.42,1.04-5.01,1.55-7.76,1.55c-4.85,0-8.67-1.32-11.47-3.95c-2.79-2.63-4.19-5.96-4.19-9.98
				c0-2.66,0.64-5.03,1.91-7.12c1.27-2.08,3.05-3.68,5.34-4.79c2.29-1.11,5.6-2.08,9.91-2.9c5.83-1.09,9.86-2.11,12.11-3.06v-1.24
				c0-2.39-0.59-4.1-1.77-5.12c-1.18-1.02-3.42-1.53-6.7-1.53c-2.22,0-3.95,0.44-5.19,1.31
				C849.24,334.46,848.23,335.99,847.47,338.17z M864.14,348.29c-1.6,0.53-4.12,1.17-7.58,1.91c-3.46,0.74-5.72,1.46-6.79,2.17
				c-1.63,1.15-2.44,2.62-2.44,4.39c0,1.75,0.65,3.25,1.95,4.52c1.3,1.27,2.96,1.91,4.97,1.91c2.25,0,4.39-0.74,6.43-2.22
				c1.51-1.12,2.5-2.5,2.97-4.12c0.33-1.06,0.49-3.09,0.49-6.08V348.29z"/>
			<path class="st2" d="M910.27,323.8v9.93h-8.52v18.98c0,3.84,0.08,6.08,0.24,6.72c0.16,0.64,0.53,1.16,1.11,1.57
				c0.58,0.41,1.28,0.62,2.11,0.62c1.15,0,2.82-0.4,5.01-1.2l1.06,9.67c-2.9,1.24-6.18,1.86-9.85,1.86c-2.25,0-4.27-0.38-6.08-1.13
				c-1.8-0.75-3.13-1.73-3.97-2.93c-0.84-1.2-1.43-2.82-1.75-4.86c-0.27-1.45-0.4-4.38-0.4-8.78v-20.54h-5.72v-9.93h5.72v-9.36
				l12.51-7.27v16.63H910.27z"/>
			<path class="st2" d="M918.92,317.42v-11.53h12.46v11.53H918.92z M918.92,370.91v-47.1h12.46v47.1H918.92z"/>
			<path class="st2" d="M941.27,346.69c0-4.14,1.02-8.15,3.06-12.02c2.04-3.87,4.93-6.83,8.67-8.87c3.74-2.04,7.92-3.06,12.53-3.06
				c7.12,0,12.97,2.31,17.52,6.94c4.55,4.63,6.83,10.47,6.83,17.54c0,7.13-2.3,13.03-6.9,17.72c-4.6,4.69-10.39,7.03-17.36,7.03
				c-4.32,0-8.43-0.98-12.35-2.93c-3.92-1.95-6.9-4.81-8.94-8.58C942.29,356.69,941.27,352.1,941.27,346.69z M954.05,347.35
				c0,4.67,1.11,8.25,3.33,10.73c2.22,2.48,4.95,3.73,8.21,3.73c3.25,0,5.98-1.24,8.18-3.73c2.2-2.48,3.3-6.09,3.3-10.82
				c0-4.61-1.1-8.16-3.3-10.65c-2.2-2.48-4.93-3.73-8.18-3.73c-3.25,0-5.99,1.24-8.21,3.73
				C955.15,339.11,954.05,342.68,954.05,347.35z"/>
			<path class="st2" d="M1042.49,370.91h-12.46v-24.04c0-5.09-0.27-8.38-0.8-9.87c-0.53-1.49-1.4-2.65-2.59-3.48
				c-1.2-0.83-2.64-1.24-4.32-1.24c-2.16,0-4.1,0.59-5.81,1.77c-1.71,1.18-2.89,2.75-3.53,4.7c-0.64,1.95-0.95,5.56-0.95,10.82
				v21.33h-12.46v-47.1h11.58v6.92c4.11-5.32,9.28-7.98,15.52-7.98c2.75,0,5.26,0.5,7.54,1.49c2.28,0.99,4,2.25,5.17,3.79
				c1.17,1.54,1.98,3.28,2.44,5.23c0.46,1.95,0.69,4.75,0.69,8.38V370.91z"/>
			<path class="st2" d="M1077.48,346.69c0-4.14,1.02-8.15,3.06-12.02c2.04-3.87,4.93-6.83,8.67-8.87c3.74-2.04,7.92-3.06,12.53-3.06
				c7.13,0,12.97,2.31,17.52,6.94s6.83,10.47,6.83,17.54c0,7.13-2.3,13.03-6.9,17.72c-4.6,4.69-10.39,7.03-17.36,7.03
				c-4.32,0-8.44-0.98-12.35-2.93c-3.92-1.95-6.9-4.81-8.94-8.58C1078.5,356.69,1077.48,352.1,1077.48,346.69z M1090.25,347.35
				c0,4.67,1.11,8.25,3.33,10.73c2.22,2.48,4.95,3.73,8.21,3.73c3.25,0,5.98-1.24,8.18-3.73c2.2-2.48,3.3-6.09,3.3-10.82
				c0-4.61-1.1-8.16-3.3-10.65c-2.2-2.48-4.93-3.73-8.18-3.73c-3.25,0-5.99,1.24-8.21,3.73
				C1091.36,339.11,1090.25,342.68,1090.25,347.35z"/>
			<path class="st2" d="M1130.39,323.8h6.92v-3.55c0-3.96,0.42-6.92,1.26-8.87c0.84-1.95,2.39-3.54,4.66-4.77
				c2.26-1.23,5.12-1.84,8.58-1.84c3.55,0,7.02,0.53,10.42,1.6l-1.69,8.69c-1.98-0.47-3.89-0.71-5.72-0.71
				c-1.8,0-3.1,0.42-3.88,1.26c-0.78,0.84-1.17,2.46-1.17,4.86v3.33h9.31v9.8h-9.31v37.3h-12.46v-37.3h-6.92V323.8z"/>
			<path class="st2" d="M1191.78,370.91v-64.49h13.13v53.53h32.64v10.96H1191.78z"/>
			<path class="st2" d="M1256.13,338.17l-11.31-2.04c1.27-4.55,3.46-7.92,6.56-10.11s7.72-3.28,13.84-3.28
				c5.56,0,9.7,0.66,12.42,1.97s4.63,2.99,5.74,5.01c1.11,2.03,1.66,5.74,1.66,11.15l-0.13,14.55c0,4.14,0.2,7.19,0.6,9.16
				c0.4,1.97,1.14,4.07,2.24,6.32h-12.33c-0.33-0.83-0.72-2.05-1.2-3.68c-0.21-0.74-0.35-1.23-0.44-1.46
				c-2.13,2.07-4.41,3.62-6.83,4.66c-2.42,1.04-5.01,1.55-7.76,1.55c-4.85,0-8.67-1.32-11.46-3.95c-2.79-2.63-4.19-5.96-4.19-9.98
				c0-2.66,0.63-5.03,1.91-7.12c1.27-2.08,3.05-3.68,5.34-4.79c2.29-1.11,5.6-2.08,9.91-2.9c5.83-1.09,9.86-2.11,12.11-3.06v-1.24
				c0-2.39-0.59-4.1-1.78-5.12c-1.18-1.02-3.41-1.53-6.7-1.53c-2.22,0-3.95,0.44-5.19,1.31
				C1257.91,334.46,1256.9,335.99,1256.13,338.17z M1272.81,348.29c-1.6,0.53-4.12,1.17-7.58,1.91c-3.46,0.74-5.72,1.46-6.79,2.17
				c-1.63,1.15-2.44,2.62-2.44,4.39c0,1.75,0.65,3.25,1.95,4.52c1.3,1.27,2.96,1.91,4.97,1.91c2.25,0,4.39-0.74,6.43-2.22
				c1.51-1.12,2.5-2.5,2.97-4.12c0.32-1.06,0.49-3.09,0.49-6.08V348.29z"/>
			<path class="st2" d="M1340.54,370.91h-11.58v-6.92c-1.92,2.69-4.19,4.69-6.81,6.01s-5.26,1.97-7.92,1.97
				c-5.41,0-10.05-2.18-13.91-6.54s-5.79-10.45-5.79-18.25c0-7.98,1.88-14.05,5.63-18.21c3.75-4.15,8.5-6.23,14.24-6.23
				c5.26,0,9.82,2.19,13.66,6.56v-23.42h12.46V370.91z M1307.27,346.33c0,5.03,0.69,8.66,2.08,10.91c2.01,3.25,4.82,4.88,8.43,4.88
				c2.87,0,5.31-1.22,7.32-3.66c2.01-2.44,3.02-6.08,3.02-10.93c0-5.41-0.98-9.31-2.93-11.69c-1.95-2.38-4.45-3.57-7.5-3.57
				c-2.96,0-5.43,1.18-7.43,3.53S1307.27,341.66,1307.27,346.33z"/>
			<path class="st2" d="M1346.92,323.8h13.26l11.27,33.44l11-33.44h12.91l-16.63,45.33l-2.97,8.21c-1.09,2.75-2.14,4.85-3.13,6.3
				c-0.99,1.45-2.13,2.62-3.42,3.53c-1.29,0.9-2.87,1.6-4.75,2.11c-1.88,0.5-4,0.75-6.36,0.75c-2.4,0-4.75-0.25-7.05-0.75
				l-1.11-9.76c1.95,0.38,3.71,0.58,5.28,0.58c2.9,0,5.04-0.85,6.43-2.55c1.39-1.7,2.46-3.87,3.19-6.5L1346.92,323.8z"/>
		</g>
		<g class="st0">
			<path class="st2" d="M540.37,479.91v-65.02h48.21v11h-35.08v14.41h32.64v10.96h-32.64v17.7h36.33v10.96H540.37z"/>
			<path class="st2" d="M643.71,479.91h-12.46v-24.04c0-5.09-0.27-8.38-0.8-9.87c-0.53-1.49-1.4-2.65-2.59-3.48
				c-1.2-0.83-2.64-1.24-4.32-1.24c-2.16,0-4.1,0.59-5.81,1.77c-1.72,1.18-2.89,2.75-3.53,4.7c-0.64,1.95-0.95,5.56-0.95,10.82
				v21.33h-12.46v-47.1h11.58v6.92c4.11-5.32,9.28-7.98,15.52-7.98c2.75,0,5.26,0.5,7.54,1.49c2.28,0.99,4,2.25,5.17,3.79
				c1.17,1.54,1.98,3.28,2.44,5.23c0.46,1.95,0.69,4.75,0.69,8.38V479.91z"/>
			<path class="st2" d="M677.95,432.8v9.93h-8.52v18.98c0,3.84,0.08,6.08,0.24,6.72c0.16,0.64,0.53,1.16,1.11,1.57
				c0.58,0.41,1.28,0.62,2.11,0.62c1.15,0,2.82-0.4,5.01-1.2l1.06,9.67c-2.9,1.24-6.18,1.86-9.85,1.86c-2.25,0-4.27-0.38-6.08-1.13
				c-1.8-0.75-3.13-1.73-3.97-2.93c-0.84-1.2-1.43-2.82-1.75-4.86c-0.27-1.45-0.4-4.38-0.4-8.78v-20.54h-5.72v-9.93h5.72v-9.36
				l12.51-7.27v16.63H677.95z"/>
			<path class="st2" d="M698.53,479.91h-12.46v-47.1h11.58v6.7c1.98-3.16,3.76-5.25,5.34-6.25c1.58-1,3.38-1.51,5.39-1.51
				c2.84,0,5.57,0.78,8.21,2.35l-3.86,10.87c-2.1-1.36-4.05-2.04-5.85-2.04c-1.75,0-3.22,0.48-4.44,1.44
				c-1.21,0.96-2.17,2.7-2.86,5.21c-0.7,2.51-1.04,7.78-1.04,15.79V479.91z"/>
			<path class="st2" d="M749.22,464.92l12.42,2.08c-1.6,4.55-4.12,8.02-7.56,10.4c-3.44,2.38-7.75,3.57-12.93,3.57
				c-8.19,0-14.25-2.68-18.18-8.03c-3.1-4.29-4.66-9.7-4.66-16.23c0-7.81,2.04-13.92,6.12-18.34c4.08-4.42,9.24-6.63,15.48-6.63
				c7.01,0,12.54,2.31,16.59,6.94c4.05,4.63,5.99,11.72,5.81,21.27h-31.22c0.09,3.7,1.09,6.57,3.02,8.63
				c1.92,2.06,4.32,3.08,7.19,3.08c1.95,0,3.59-0.53,4.92-1.6S748.54,467.28,749.22,464.92z M749.93,452.32
				c-0.09-3.61-1.02-6.35-2.79-8.23c-1.77-1.88-3.93-2.82-6.48-2.82c-2.72,0-4.97,0.99-6.74,2.97c-1.77,1.98-2.65,4.67-2.62,8.07
				H749.93z"/>
			<path class="st2" d="M772.11,432.8h11.62v6.92c1.51-2.37,3.55-4.29,6.12-5.77s5.43-2.22,8.56-2.22c5.47,0,10.11,2.14,13.93,6.43
				c3.81,4.29,5.72,10.26,5.72,17.92c0,7.87-1.92,13.98-5.77,18.34c-3.84,4.36-8.5,6.54-13.97,6.54c-2.6,0-4.96-0.52-7.07-1.55
				c-2.11-1.03-4.34-2.81-6.67-5.32v23.73h-12.46V432.8z M784.44,455.56c0,5.29,1.05,9.2,3.15,11.73c2.1,2.53,4.66,3.79,7.67,3.79
				c2.9,0,5.31-1.16,7.23-3.48s2.88-6.13,2.88-11.42c0-4.94-0.99-8.6-2.97-11c-1.98-2.39-4.43-3.59-7.36-3.59
				c-3.05,0-5.57,1.18-7.58,3.53C785.45,447.46,784.44,450.94,784.44,455.56z"/>
			<path class="st2" d="M839.88,479.91h-12.46v-47.1h11.58v6.7c1.98-3.16,3.76-5.25,5.34-6.25c1.58-1,3.38-1.51,5.39-1.51
				c2.84,0,5.57,0.78,8.21,2.35l-3.86,10.87c-2.1-1.36-4.05-2.04-5.85-2.04c-1.75,0-3.22,0.48-4.43,1.44
				c-1.21,0.96-2.17,2.7-2.86,5.21c-0.7,2.51-1.04,7.78-1.04,15.79V479.91z"/>
			<path class="st2" d="M890.58,464.92L903,467c-1.6,4.55-4.12,8.02-7.56,10.4c-3.45,2.38-7.75,3.57-12.93,3.57
				c-8.19,0-14.25-2.68-18.18-8.03c-3.11-4.29-4.66-9.7-4.66-16.23c0-7.81,2.04-13.92,6.12-18.34s9.24-6.63,15.48-6.63
				c7.01,0,12.54,2.31,16.59,6.94c4.05,4.63,5.99,11.72,5.81,21.27h-31.22c0.09,3.7,1.09,6.57,3.02,8.63
				c1.92,2.06,4.32,3.08,7.19,3.08c1.95,0,3.59-0.53,4.92-1.6S889.9,467.28,890.58,464.92z M891.29,452.32
				c-0.09-3.61-1.02-6.35-2.79-8.23c-1.77-1.88-3.93-2.82-6.48-2.82c-2.72,0-4.97,0.99-6.74,2.97c-1.77,1.98-2.65,4.67-2.62,8.07
				H891.29z"/>
			<path class="st2" d="M956.66,479.91H944.2v-24.04c0-5.09-0.27-8.38-0.8-9.87c-0.53-1.49-1.4-2.65-2.59-3.48
				c-1.2-0.83-2.64-1.24-4.32-1.24c-2.16,0-4.1,0.59-5.81,1.77c-1.71,1.18-2.89,2.75-3.53,4.7c-0.64,1.95-0.95,5.56-0.95,10.82
				v21.33h-12.46v-47.1h11.58v6.92c4.11-5.32,9.29-7.98,15.52-7.98c2.75,0,5.26,0.5,7.54,1.49c2.28,0.99,4,2.25,5.17,3.79
				c1.17,1.54,1.98,3.28,2.44,5.23c0.46,1.95,0.69,4.75,0.69,8.38V479.91z"/>
			<path class="st2" d="M996.58,464.92L1009,467c-1.6,4.55-4.12,8.02-7.56,10.4c-3.44,2.38-7.75,3.57-12.93,3.57
				c-8.19,0-14.25-2.68-18.18-8.03c-3.1-4.29-4.66-9.7-4.66-16.23c0-7.81,2.04-13.92,6.12-18.34s9.24-6.63,15.48-6.63
				c7.01,0,12.54,2.31,16.59,6.94s5.99,11.72,5.81,21.27h-31.22c0.09,3.7,1.09,6.57,3.02,8.63c1.92,2.06,4.32,3.08,7.19,3.08
				c1.95,0,3.59-0.53,4.92-1.6C994.89,469,995.9,467.28,996.58,464.92z M997.29,452.32c-0.09-3.61-1.02-6.35-2.79-8.23
				c-1.78-1.88-3.93-2.82-6.48-2.82c-2.72,0-4.97,0.99-6.74,2.97c-1.77,1.98-2.65,4.67-2.62,8.07H997.29z"/>
			<path class="st2" d="M1050.82,479.91v-7.05c-1.72,2.51-3.97,4.49-6.76,5.94c-2.79,1.45-5.74,2.17-8.85,2.17
				c-3.16,0-6-0.7-8.52-2.08c-2.51-1.39-4.33-3.34-5.46-5.85c-1.12-2.51-1.69-5.99-1.69-10.42v-29.8h12.46v21.64
				c0,6.62,0.23,10.68,0.69,12.18c0.46,1.49,1.29,2.68,2.51,3.55c1.21,0.87,2.75,1.31,4.61,1.31c2.13,0,4.04-0.58,5.72-1.75
				s2.84-2.62,3.46-4.35s0.93-5.97,0.93-12.71V432.8h12.46v47.1H1050.82z"/>
			<path class="st2" d="M1087.24,479.91h-12.46v-47.1h11.58v6.7c1.98-3.16,3.76-5.25,5.34-6.25c1.58-1,3.38-1.51,5.39-1.51
				c2.84,0,5.57,0.78,8.21,2.35l-3.86,10.87c-2.1-1.36-4.05-2.04-5.85-2.04c-1.75,0-3.22,0.48-4.44,1.44
				c-1.21,0.96-2.17,2.7-2.86,5.21c-0.7,2.51-1.04,7.78-1.04,15.79V479.91z"/>
			<path class="st2" d="M1106.26,466.47l12.51-1.91c0.53,2.42,1.61,4.26,3.24,5.52c1.63,1.26,3.9,1.88,6.83,1.88
				c3.22,0,5.65-0.59,7.27-1.77c1.09-0.83,1.64-1.94,1.64-3.33c0-0.95-0.3-1.73-0.89-2.35c-0.62-0.59-2.01-1.14-4.17-1.64
				c-10.05-2.22-16.43-4.24-19.12-6.08c-3.73-2.54-5.59-6.08-5.59-10.6c0-4.08,1.61-7.51,4.83-10.29c3.22-2.78,8.22-4.17,14.99-4.17
				c6.45,0,11.24,1.05,14.37,3.15c3.13,2.1,5.29,5.21,6.48,9.31l-11.75,2.17c-0.5-1.83-1.46-3.24-2.86-4.21
				c-1.41-0.98-3.41-1.46-6.01-1.46c-3.28,0-5.63,0.46-7.05,1.38c-0.95,0.65-1.42,1.49-1.42,2.53c0,0.89,0.41,1.64,1.24,2.26
				c1.12,0.83,5,2,11.64,3.5c6.64,1.51,11.27,3.36,13.9,5.54c2.6,2.22,3.9,5.31,3.9,9.27c0,4.32-1.8,8.03-5.41,11.13
				s-8.95,4.66-16.01,4.66c-6.42,0-11.49-1.3-15.23-3.9C1109.86,474.47,1107.42,470.93,1106.26,466.47z"/>
			<path class="st2" d="M1183.53,455.69c0-4.14,1.02-8.15,3.06-12.02c2.04-3.87,4.93-6.83,8.67-8.87c3.74-2.04,7.92-3.06,12.53-3.06
				c7.12,0,12.96,2.31,17.52,6.94c4.55,4.63,6.83,10.47,6.83,17.54c0,7.13-2.3,13.03-6.9,17.72c-4.6,4.69-10.39,7.03-17.36,7.03
				c-4.32,0-8.43-0.98-12.35-2.93c-3.92-1.95-6.9-4.81-8.94-8.58C1184.55,465.69,1183.53,461.1,1183.53,455.69z M1196.3,456.35
				c0,4.67,1.11,8.25,3.33,10.73c2.22,2.48,4.95,3.73,8.21,3.73s5.98-1.24,8.18-3.73c2.2-2.48,3.3-6.09,3.3-10.82
				c0-4.61-1.1-8.16-3.3-10.65c-2.2-2.48-4.93-3.73-8.18-3.73s-5.99,1.24-8.21,3.73C1197.41,448.11,1196.3,451.68,1196.3,456.35z"/>
			<path class="st2" d="M1236.44,432.8h6.92v-3.55c0-3.96,0.42-6.92,1.26-8.87c0.84-1.95,2.4-3.54,4.66-4.77
				c2.26-1.23,5.12-1.84,8.58-1.84c3.55,0,7.02,0.53,10.42,1.6l-1.68,8.69c-1.98-0.47-3.89-0.71-5.72-0.71
				c-1.8,0-3.1,0.42-3.88,1.26s-1.18,2.46-1.18,4.86v3.33h9.31v9.8h-9.31v37.3h-12.46v-37.3h-6.92V432.8z"/>
			<path class="st2" d="M1297.07,479.91v-65.02h13.13v65.02H1297.07z"/>
			<path class="st2" d="M1365.46,479.91H1353v-24.04c0-5.09-0.27-8.38-0.8-9.87c-0.53-1.49-1.4-2.65-2.59-3.48
				c-1.2-0.83-2.64-1.24-4.33-1.24c-2.16,0-4.1,0.59-5.81,1.77c-1.72,1.18-2.89,2.75-3.53,4.7c-0.64,1.95-0.95,5.56-0.95,10.82
				v21.33h-12.46v-47.1h11.58v6.92c4.11-5.32,9.28-7.98,15.52-7.98c2.75,0,5.26,0.5,7.54,1.49c2.28,0.99,4,2.25,5.17,3.79
				c1.17,1.54,1.98,3.28,2.44,5.23c0.46,1.95,0.69,4.75,0.69,8.38V479.91z"/>
			<path class="st2" d="M1421.3,479.91h-11.58v-6.92c-1.92,2.69-4.19,4.69-6.81,6.01c-2.62,1.32-5.26,1.97-7.92,1.97
				c-5.41,0-10.04-2.18-13.9-6.54s-5.79-10.45-5.79-18.25c0-7.98,1.88-14.05,5.63-18.21s8.5-6.23,14.24-6.23
				c5.26,0,9.82,2.19,13.66,6.56v-23.42h12.46V479.91z M1388.04,455.33c0,5.03,0.69,8.66,2.08,10.91c2.01,3.25,4.82,4.88,8.43,4.88
				c2.87,0,5.31-1.22,7.32-3.66c2.01-2.44,3.02-6.08,3.02-10.93c0-5.41-0.98-9.31-2.93-11.69c-1.95-2.38-4.45-3.57-7.5-3.57
				c-2.96,0-5.43,1.18-7.43,3.53S1388.04,450.66,1388.04,455.33z"/>
			<path class="st2" d="M1433.59,426.42v-11.53h12.46v11.53H1433.59z M1433.59,479.91v-47.1h12.46v47.1H1433.59z"/>
			<path class="st2" d="M1468.14,447.17l-11.31-2.04c1.27-4.55,3.46-7.92,6.56-10.11c3.1-2.19,7.72-3.28,13.84-3.28
				c5.56,0,9.7,0.66,12.42,1.97c2.72,1.32,4.63,2.99,5.74,5.01c1.11,2.03,1.66,5.74,1.66,11.15l-0.13,14.55
				c0,4.14,0.2,7.19,0.6,9.16c0.4,1.97,1.15,4.07,2.24,6.32h-12.33c-0.33-0.83-0.72-2.05-1.2-3.68c-0.21-0.74-0.36-1.23-0.44-1.46
				c-2.13,2.07-4.41,3.62-6.83,4.66c-2.43,1.04-5.01,1.55-7.76,1.55c-4.85,0-8.67-1.32-11.47-3.95s-4.19-5.96-4.19-9.98
				c0-2.66,0.64-5.03,1.91-7.12c1.27-2.08,3.05-3.68,5.34-4.79c2.29-1.11,5.6-2.08,9.91-2.9c5.82-1.09,9.86-2.11,12.11-3.06v-1.24
				c0-2.39-0.59-4.1-1.77-5.12c-1.18-1.02-3.42-1.53-6.7-1.53c-2.22,0-3.95,0.44-5.19,1.31
				C1469.91,443.46,1468.91,444.99,1468.14,447.17z M1484.82,457.29c-1.6,0.53-4.12,1.17-7.58,1.91c-3.46,0.74-5.72,1.46-6.79,2.17
				c-1.63,1.15-2.44,2.62-2.44,4.39c0,1.75,0.65,3.25,1.95,4.52c1.3,1.27,2.96,1.91,4.97,1.91c2.25,0,4.39-0.74,6.43-2.22
				c1.51-1.12,2.5-2.5,2.97-4.12c0.33-1.06,0.49-3.09,0.49-6.08V457.29z"/>
		</g>
	</g>
	<g>
		<path class="st3" d="M88.45,315.51c1.75-0.33,3.49-0.66,5.24-0.99c9.09,32.7,23.14,68.22,48.17,92.09
			c18.01,17.18,39.27,31.77,62.4,41.62c15.68,6.68,32.66,12.02,49.9,13.82c14.72,1.54,33.08,1.88,47.56-1.91l10.26-2.1
			c-0.71,9.05-7.67,7.15-11.89,7.94c-53.73,9.9-110.2-8.72-151.04-44.13c-26.86-23.29-47.41-54.19-56.94-88.55
			c-1.62-5.84-2.91-11.78-3.86-17.77C88.33,315.53,88.39,315.52,88.45,315.51z M313.35,513.03h-2.08c-2.4-0.52-2.4-3.41,4.03-8.33
			c9.99-7.64,16.83-18.68,22.85-29.53c13.89-25.01,17.29-55.17,9.96-82.77c-5.6-21.12-17.14-38.63-31.41-54.73
			c-18.45-20.81-40.38-41.06-54.83-64.84c-8.45-13.9-14.23-29.42-16.94-45.46c-1.35-7.96-2.12-16.23-1.71-24.31
			c0.37-7.38,1.98-15.49-1.33-22.48c-2.79,0.72-3.18,2.23-4.74,4.4c-6.76,9.32-10,19.49-12.15,31.03
			c-3.12,17.06,0.39,7.02,0.39,12.86c0,3.94-1.75,1.25-2.47,6.69l-3.38,21.59c-0.97,4.07-2.92,8.2-4.55,12.07
			c-4.81,11.74-8.51,11.48,2.92,17.19c9.48,4.72,4.68,7.28,3.31,12.47c1.49,2.03,1.17,1.84,4.16,2.49c-0.65,2.89-1.82,3.02-1.3,5.51
			c0.52,2.62,2.92,3.35,2.92,4.53c0,7.02-4.48,16.53,1.69,22.44c4.94,4.72,9.48,3.08,14.88,4.99c27.87,9.91,45.67,21.65,64.05,45.27
			c11.27,14.49,15.94,33.27,14.08,51.42c-0.92,9.03-3.42,17.91-7.42,26.07c-4.26,8.71-10.65,14.67-16.41,22.18
			c-3.96,5.05-9.81,9.51-15.4,12.73c-0.19,0.13-0.39,0.26-0.52,0.33c-2.86,1.71-3.31,2.89-7.93,2.89
			c-58.57,0-116.57-25.19-157.83-66.54c-9.33-9.35-17.8-19.56-25.2-30.5c-16.19-23.9-27.64-51.35-33.02-79.72
			c-0.41-2.14-0.92-4.37-0.92-6.56V275.8c0.84-3.81,3.25-2.3,9.48-3.21l15.27-1.18c0-9.71-3.83-12.79-10.13-25.59
			c-2.01-4.07-3.7-6.23-5.39-10.37c-4.81-11.74-6.89-8.14,3.05-32.48c9.09-22.24,6.82-20.34,16.24-16.21c5.2,2.3,13.32,6.56,18.51,8
			c1.23-1.9,1.88-2.95,3.12-5.31c2.53-4.92,0.13-10.04-1.82-19.36c-1.04-4.79-3.12-8.53-3.77-12.86c-1.69-11.22-1.43-8.4,5.2-16.4
			l25.07-24.67c2.34-2.1,1.69-2.23,5.2-3.08c3.77,2.76,6.43,6.89,9.68,10.24c10.85,10.89,9.09,11.15,19.81,2.1
			c2.6-2.23,6.17-5.64,9.29-6.5c0-10.04-4.16-23.42-4.15-29.13c0,0.05,14.43-6.12,15.36-6.54c53.47-24.46,116.98-23.68,170.85-0.81
			c48.44,20.57,89.18,58.43,112.19,105.86c9.28,19.14,15.85,39.57,19.21,60.59c9.01,56.41-5.01,116.68-39.53,162.42
			c-20.64,27.36-48.13,49.5-78.79,64.71c-6.95,3.45-14.1,6.59-21.4,9.24c-5.41,1.96-12.38,3-15.95,7.99l-12.02,14.57
			C319.13,510.93,315.82,512.64,313.35,513.03z M121.46,310.55c3.64-0.07,2.53-0.59,5.78-0.84c2.72,33.35,26.34,64.3,50.6,85.63
			c13.92,12.24,30.91,19.49,47.81,26.62c8.31,3.48,31.44,7.74,41.83,7.74c6.95,0,15.66,0.85,22.15-0.92
			c4.74-1.31,9.48-0.98,15.27-2.95c2.53-0.85,2.08-0.66,4.61-1.12c8.25-1.57,9.94-5.71,9.94,3.35c-3.51,0.79-4.55,1.84-8.19,2.56
			c-37.42,8.11-74.89,5.58-109.21-11.81c-37.3-18.89-66.72-53.75-78.13-94.09C122.63,320.2,121.46,316.33,121.46,310.55z
			 M143.74,307.21c3.64-0.07,3.83-0.85,8.25-0.85c1.86,24.09,18.55,49.53,36.04,65.38c17.39,15.76,39.3,26.68,62.33,31.16
			c21.44,4.17,40.7,0.4,61.63-4.88c1.3,2.49,2.01,5.05,3.31,7.55c-3.83,0.33-5.33,2.62-13.38,3.94
			c-38.97,6.28-79.66,0.41-111.08-24.87c-21.42-17.24-34.44-38.46-44.24-63.77L143.74,307.21z M344.99,362.19
			c-4.16-3.02-6.37-9.62-9.67-13.57c-14.45-17.31-31.13-33.09-46.65-49.48c-2.08-2.17-2.4-3.35-4.48-5.45
			c-4.94-5.12-14.36-17.85-17.41-23.23c-3.77-6.63-6.37-13.98-8.96-21l-5-14.89c-0.91-3.41-1.62-4-2.34-7.68
			c-0.65-3.41-1.17-6.04-1.69-9.19c-0.65-4.07-0.78-37.72-0.52-38.12c3.07-4.67,16.72-3.59,21.31-3.62
			c8.97-0.06,17.92,0.98,26.64,3.07c46.65,11.18,84.24,53.91,84.99,102.57c0.4,25.66-9.47,50.69-25.63,70.41
			C352.13,356.22,349.86,359.63,344.99,362.19z M251.76,169.53c-0.77,0.03-1.55,0.05-2.32,0.04c-0.8-0.01-1.67-0.08-2.26-0.63
			c-0.92-0.85-0.61-2.48,0.31-3.33s2.22-1.13,3.45-1.35c17.47-3.16,33.38-1.22,50.45,2.02c11.04,2.1,27.02,9.38,36.51,15.62
			c0.84,0.52,1.43,0.92,2.08,1.31c23.32,13.19,41.7,40.02,49.76,66.33c7.09,23.3,6.21,48.59-1.61,71.59
			c-3.62,10.65-8.7,20.8-15.07,30.08c-1.61,2.34-22.28,26.03-22.96,24.99c-1.37-2.1-1.05-4.95,0.12-7.17
			c1.16-2.22,3.04-3.96,4.83-5.72c21.53-21.23,33.96-51.4,33.64-81.63c-0.6-56.5-44.64-104.11-99.99-112.22
			c-9.48-1.39-19.13-1.62-28.66-0.68C257.28,169.04,254.52,169.41,251.76,169.53z M243.52,140.55c14.15-6.74,36.32-3.36,51.16-0.82
			c51.74,8.83,98.72,45.43,116.83,95.15c6.89,18.91,9.48,39.35,7.83,59.4c-1.48,17.9-6.68,35.28-14.52,51.4
			c-7.32,15.05-17.17,32.27-30.47,42.88c-3.7,2.95-13.12,12.4-17.8,12.79c-1.43-3.02,0.19-2.56-1.04-7.15
			c-0.84-2.95-1.62-5.18-2.27-7.81c3-4.5,8.24-7.6,12.12-11.28c4.92-4.68,9.29-10.09,13.26-15.59
			c14.42-19.98,23.06-43.74,24.54-68.35c3-49.7-25.26-98.6-69.04-121.95c-21.14-11.28-44.69-14.28-68.32-15.35
			C247.35,153.87,244.17,162.67,243.52,140.55z M357.4,439.68c0-9.78,1.1-12.73,0.84-21.65c-0.13-4.07-0.78-3.87-0.84-7.48
			c-0.02-1.12,8.56-6.49,9.89-7.57c3.82-3.09,7.53-6.3,11.11-9.66c7.07-6.64,13.62-13.85,19.38-21.67
			c31.64-42.91,36.49-102.4,15.51-150.94c-20.58-47.62-66.8-80.91-117.74-88.48c-17.49-2.6-35.56-2.38-52.81,1.7
			c0,0-4.28-16.52-4.29-16.53c-1.1-4.25-2.7-8.22,1.52-10.31c2.35-1.16,7.74-1,10.49-1.38c35.07-4.88,69.74,4.99,101.71,18.79
			c47.58,20.54,81.6,66.02,95.14,115.22c14.9,54.14-0.93,115.23-36.82,157.87c-13.01,15.45-28.94,27.68-45.82,38.61
			C362.14,437.84,361.03,439.41,357.4,439.68z M241.05,173.1c0-0.91-17.45,6.08-19.03,6.84c-28.22,13.49-50.55,37.98-60.44,67.73
			c-7.19,21.63-6.15,42.89-1.73,64.92l5.39,16.21c5.2,11.42,6.24,12.53,12.93,22.77c3.44,5.18,15.66,17.91,21.31,21.85
			c15.85,10.89,16.69,12.93,37.29,19.81c1.82,0.66,3.05,1.38,5.46,1.97c17.21,4,32.16,4.07,49.05,1.9l12.34-2.56
			c5-1.57,3.25-2.43,6.76-0.66c-2.53,3.48-6.89,2.36-11.76,3.94c-16.69,5.45-39.43,3.21-56.78-0.52
			c-12.28-2.62-24.69-9.05-34.43-15.22c-22.22-14.04-42.94-39.5-49.24-65.28c-0.97-4.13-2.92-9.45-2.92-13.71
			c-0.02,1.44-35.3,4.91-37.98,5.25c-6.33,0.8-55.22,5.72-55.24,7.22c0.13-12-3.25-23.76-3.25-35.82c8.12-1.9,18.58-1.97,27.22-2.49
			c9.09-0.52,4.22-4.07,7.6-18.96l2.27-17.72c-3.25-0.72-4.35-1.97-6.76-3.15l-14.68-6.82c-2.53-1.31-4.94-2.17-7.41-3.35
			c0.91-4.07,10.91-35.82,13.97-35.82c2.73,0,11.95,4.79,14.62,6.1c2.92,1.51,12.15,6.17,15.14,6.36c1.69-2.62,2.53-4.66,4.16-7.41
			c14.29-25.19,18.77-17.91,2.6-34.45l-10.91-12.27c5.33-8,23.97-26.51,30.53-29.98l11.37,11.88c3.9,3.87,7.02,8.6,10.91,12.27
			l23-15.09c9.81-5.12,9.09-2.17,2.92-21.06L180,92.3l14.55-7.02c2.27-0.92,3.12-0.72,5.65-1.77c3.25-1.44,1.82-1.25,5.33-2.17
			c2.27-0.59,3.57-0.98,5.85-1.57c2.01-0.52,4.09-0.92,5.85-1.57c2.79-0.92,2.53-1.51,5.72-1.77
			C231.23,107.96,241.05,140.17,241.05,173.1z M229.44,74.75c-0.02-0.13-0.04-0.25-0.06-0.38c-0.3-2.05,40.06-4.2,43.73-4.17
			c27.99,0.24,56.38,6.11,82.38,17.03c52.17,21.91,95.44,66.43,116.29,118.87c21.74,54.69,17.78,118.31-8.46,170.77
			c-11.65,23.31-27.85,44.34-47.41,61.56c-21.67,19.08-47.26,30.55-73.07,42.9c3.33-8.17,6.67-16.34,10-24.51
			c0.74-1.82,1.49-3.65,2.62-5.26c2.38-3.38,6.19-5.42,9.79-7.45c50.63-28.5,84.55-76.98,92.72-134.6
			c1.85-13.02,2.39-26.25,1.39-39.36c-2.87-37.7-17.85-74.26-41.7-103.54c-33.79-41.49-86.09-68.18-139.82-68.95
			c-10.28-0.15-20.58,0.7-30.7,2.48c-3.18,0.56-6.59,1.18-9.51-0.2C229.68,96.17,230.5,81.91,229.44,74.75z"/>
		<path class="st3" d="M131.33,203.08l16.5,9.97c1.95,1.31,3.25,2.69,5.78,3.35l11.17-15.35c1.69-2.1,2.99-2.89,3.7-5.51
			c-1.3-1.71-2.34-2.1-4.16-3.28c-4.61,3.08-6.43,8.73-10.72,11.61l-3.25-1.71c1.62-2.43,2.6-3.61,4.55-6.1
			c1.82-2.36,3.7-3.41,4.48-6.36l-3.12-3.48c-4.74,3.28-6.11,6.89-9.35,10.17c-2.27,2.3-0.13,1.77-4.03,0.85
			c1.56-5.9,9.55-10.63,10.72-15.02l-3.12-3.48c-3.83,1.12-3.51,2.76-5.78,5.38C141.14,188.25,132.57,198.42,131.33,203.08
			L131.33,203.08z"/>
		<path class="st4" d="M119.77,258.06c2.47-0.59,4.74-1.44,7.47-1.71v5.84l-5.65-2.62C120.81,258.98,120.29,258.52,119.77,258.06
			L119.77,258.06z M110.74,263.9c2.86,0.79,1.3,0.52,3.64,2.1c1.69,1.12,2.4,1.44,4.09,2.56c21.31,14.04,17.8,9.78,17.8-1.31
			c-2.14-0.52-2.4-0.79-4.09-1.71c0.52-2.36,0.65-4.33,1.23-7.09c0.84-4.2,0.84-3.74,5.33-3.74c0.32-3.81,1.75-6.63,2.53-9.97
			c-7.47,0-14.88,1.9-21.31,3.48C114.05,249.67,110.74,247.7,110.74,263.9L110.74,263.9z"/>
		<path class="st3" d="M170.96,169.75c2.01,0.52,4.68,2.3,6.56,3.35c-0.71,2.69-1.43,3.41-4.09,4.13
			C172.19,174.74,172,172.05,170.96,169.75L170.96,169.75z M161.02,167.26l8.25,27.49c3.64-0.98,7.47-6.5,7.47-6.69
			c0-4.07-3.64-3.08,6.56-9.97c4.03,0.92,2.99,2.56,6.43,0.72c2.34-1.25,3.05-2.56,5.98-3.21c-1.3-4.92-23.84-15.88-23.97-15.88
			C169.98,159.71,162.9,166.01,161.02,167.26L161.02,167.26z"/>
		<path class="st3" d="M199.02,149.74c5.59-0.46,1.95-2.3,8.25-0.85c-0.39,4.07-3.05,4.99-6.63,5.84
			C200.32,153.48,199.48,150.86,199.02,149.74L199.02,149.74z M185.77,149.74c1.49,5.58,10.33,17.78,11.56,23.36
			c3.38-0.33,7.34-2.82,9.94-4.2c-1.1-2.03-3.12-6.43-3.31-9.19c3.31-0.79,5.59-1.77,8.25-3.35c8.77-5.05,7.86-15.81-2.47-15.81
			C201.88,140.56,192.33,148.17,185.77,149.74L185.77,149.74z"/>
		<path class="st3" d="M139.58,229.72c-4.03-0.33-6.11-1.97-9.09-3.28c-2.66-1.25-6.5-3.28-9.87-3.41
			c-0.97,4.26-2.92,6.56-3.31,10.89l18.71,6.1c7.02,2.56,5,3.67,10.26-9.32c1.36-3.35,4.55-8,4.87-11.81
			c-3.12-0.85-2.08-1.64-5.78-2.49C143.8,219.42,139.91,226.11,139.58,229.72L139.58,229.72z"/>
	</g>
</g>
</svg>
