<?xml version="1.0" encoding="utf-8"?>
<!-- Generator: Adobe Illustrator 27.1.0, SVG Export Plug-In . SVG Version: 6.00 Build 0)  -->
<svg version="1.1" id="Layer_1" xmlns="http://www.w3.org/2000/svg" xmlns:xlink="http://www.w3.org/1999/xlink" x="0px" y="0px"
	 viewBox="0 0 433.13 118.52" style="enable-background:new 0 0 433.13 118.52;" xml:space="preserve">
<style type="text/css">
	.st0{fill:#2681BE;}
	.st1{fill:#ED513D;}
	.st2{fill:#FBC55C;}
	.st3{fill:#89B470;}
	.st4{fill:none;}
</style>
<rect x="8.35" y="17.95" width="7.65" height="84.08"/>
<g>
	<path d="M144.76,7.39v81.18h7.53V7.39H144.76z"/>
</g>
<g>
	<path d="M196.01,88.57V73.14c0-5.62-4.02-11.31-11.69-11.31h-13.24v26.74h-7.53V7.39h7.53v47.16h7.01c4.63,0,7.59-4.13,12.85-12.04
		l6.72-9.96h9.06l-9.34,14.12c-0.4,0.6-0.8,1.24-1.21,1.89c-1.48,2.33-3.09,4.89-5.11,6.94c6.66,1.65,12.47,7.25,12.47,17.38v15.68
		H196.01z"/>
</g>
<g>
	<path d="M219.22,88.57V32.55h7.5v56.02H219.22z M222.96,24.27c-2.78,0-4.97-2.19-4.97-5c0-2.8,2.18-5,4.97-5c2.8,0,5,2.19,5,5
		C227.96,22.08,225.76,24.27,222.96,24.27z"/>
</g>
<g>
	<path d="M256.23,88.57c-10.65,0-17.01-6.26-17.01-16.76V18.07h7.53v14.48h18.68v7.27h-18.68v32.43c0,5.62,3.2,8.97,8.56,8.97h10.12
		v7.34H256.23z"/>
</g>
<g>
	<path d="M361.11,88.57c-16.56,0-28.57-12.02-28.57-28.58c0-16.56,12.02-28.58,28.57-28.58h9.62v7.78h-9.36
		c-12.63,0-21.11,8.36-21.11,20.8c0,12.44,8.48,20.79,21.11,20.79h9.36v7.78H361.11z"/>
</g>
<g>
	<path d="M417.32,88.57V55.31c0-9.6-6.43-16.56-15.3-16.56s-15.3,6.97-15.3,16.56v33.25h-7.46V7.39h7.46v29.8
		c3.97-3.71,9.35-5.78,15.3-5.78c13.19,0,22.76,9.81,22.76,23.33v33.83H417.32z"/>
</g>
<path class="st0" d="M16.73,60.12c14.29,17,29.11,33.44,42.51,51.01h12.26c-14.86-17-29.84-34.01-44.38-51.33
	c5.66-6.32,23.3-27.44,42.89-50.89H60.1C40.44,32.62,22.58,53.92,16.73,60.12"/>
<path class="st1" d="M34.97,60.12c14.29,17,29.11,33.44,42.51,51.01h12.27c-14.86-17-29.84-34.01-44.38-51.33
	c5.66-6.32,23.29-27.44,42.89-50.89h-9.92C58.68,32.62,40.82,53.92,34.97,60.12"/>
<path class="st2" d="M106.5,8.91h-9.92C76.91,32.62,59.05,53.92,53.21,60.12c14.29,17,29.11,33.44,42.51,51.01h12.26
	c-14.85-17-29.84-34.01-44.41-51.33C69.27,53.48,86.9,32.36,106.5,8.91"/>
<g>
	<path d="M325.45,53.63l-0.43-1.64l-7.46,2.2l0.41,1.55c2.91,11.08-3.79,22.66-14.92,25.81c-7.44,2.11-15.2,0.14-20.73-5.27
		c-2.68-2.68-4.64-5.98-5.65-9.53c-1.68-5.83-1-12.13,1.87-17.28c2.68-4.82,7.12-8.31,12.51-9.83c5.26-1.56,10.87-0.92,15.53,1.79
		L282.56,70.1l6.15,4.72l25.03-30.02l4.06-4.82l-1.18-1.07c-7.46-6.75-17.79-9.11-27.63-6.31c-7.59,2.15-13.79,6.96-17.45,13.55
		c-3.77,6.78-4.62,14.77-2.39,22.5c1.5,5.23,4.3,9.86,8.11,13.39c5.29,4.94,12.24,7.54,19.59,7.54c2.96,0,5.99-0.42,9.01-1.29
		C320.54,84.13,329.34,68.57,325.45,53.63z"/>
</g>
<g>
	<path d="M106.15,31.41c-15.59,0-27.34,12.53-27.34,29.15c0,16.58,11.75,29.08,27.34,29.08c7.2,0,12.17-2.91,15.4-5.34V75.1
		l-0.12,0.12c-4.84,5.01-9.41,7.15-15.29,7.15c-9.46,0-19.6-8.76-19.6-21.81c0-13.04,10.13-21.81,19.6-21.81
		c12.4,0,19.82,11.09,19.82,21.81v28.01h7.53V60.56C133.49,43.94,121.74,31.41,106.15,31.41z"/>
</g>
</svg>
