<svg width="225" height="225" viewBox="0 0 225 225" fill="none" xmlns="http://www.w3.org/2000/svg">
<rect width="225" height="225" fill="white"/>
<path d="M34.1136 138.721C31.6776 138.721 29.5066 138.298 27.6009 137.453C25.6951 136.591 24.187 135.324 23.0767 133.65C21.983 131.96 21.4361 129.855 21.4361 127.336C21.4361 125.215 21.8255 123.433 22.6044 121.991C23.3833 120.55 24.4439 119.39 25.7862 118.511C27.1286 117.633 28.6532 116.97 30.3601 116.523C32.0836 116.075 33.8899 115.76 35.7791 115.578C37.9998 115.346 39.7895 115.131 41.1484 114.932C42.5073 114.716 43.4934 114.402 44.1065 113.987C44.7197 113.573 45.0263 112.96 45.0263 112.148V111.999C45.0263 110.424 44.5291 109.206 43.5348 108.344C42.5571 107.483 41.165 107.052 39.3587 107.052C37.4529 107.052 35.9366 107.474 34.8097 108.32C33.6828 109.148 32.937 110.192 32.5724 111.452L22.7784 110.656C23.2756 108.336 24.2533 106.331 25.7116 104.641C27.17 102.934 29.0509 101.625 31.3544 100.713C33.6745 99.785 36.3591 99.321 39.4084 99.321C41.5296 99.321 43.5597 99.5696 45.4986 100.067C47.4541 100.564 49.1858 101.335 50.6939 102.379C52.2185 103.423 53.42 104.765 54.2983 106.406C55.1766 108.03 55.6158 109.977 55.6158 112.247V138H45.5732V132.705H45.2749C44.6617 133.898 43.8414 134.951 42.8139 135.862C41.7865 136.757 40.5518 137.461 39.1101 137.975C37.6683 138.472 36.0028 138.721 34.1136 138.721ZM37.1463 131.413C38.7041 131.413 40.0795 131.106 41.2727 130.493C42.4659 129.863 43.4022 129.018 44.0817 127.957C44.7611 126.897 45.1009 125.695 45.1009 124.353V120.301C44.7694 120.517 44.3137 120.715 43.7337 120.898C43.1702 121.063 42.5322 121.221 41.8196 121.37C41.107 121.503 40.3944 121.627 39.6818 121.743C38.9692 121.842 38.3229 121.933 37.7429 122.016C36.5 122.199 35.4145 122.489 34.4865 122.886C33.5585 123.284 32.8376 123.823 32.3239 124.502C31.8101 125.165 31.5533 125.994 31.5533 126.988C31.5533 128.43 32.0753 129.532 33.1193 130.294C34.1799 131.04 35.5223 131.413 37.1463 131.413ZM71.3633 138L60.9727 99.8182H71.6864L77.6026 125.472H77.9506L84.1154 99.8182H94.6303L100.895 125.322H101.218L107.034 99.8182H117.723L107.358 138H96.1467L89.5842 113.987H89.1119L82.5494 138H71.3633ZM143.905 99.8182V107.773H120.34V99.8182H143.905ZM125.734 138V97.0589C125.734 94.2914 126.272 91.9962 127.35 90.1733C128.443 88.3504 129.935 86.9832 131.824 86.0717C133.713 85.1603 135.859 84.7045 138.262 84.7045C139.886 84.7045 141.369 84.8288 142.712 85.0774C144.071 85.326 145.082 85.5497 145.744 85.7486L143.855 93.7031C143.441 93.5705 142.927 93.4463 142.314 93.3303C141.718 93.2143 141.104 93.1562 140.475 93.1562C138.917 93.1562 137.831 93.5208 137.218 94.25C136.605 94.9626 136.298 95.9652 136.298 97.2578V138H125.734ZM150.374 138V99.8182H160.964V138H150.374ZM155.694 94.8963C154.12 94.8963 152.769 94.3743 151.642 93.3303C150.532 92.2696 149.977 91.0019 149.977 89.527C149.977 88.0687 150.532 86.8175 151.642 85.7734C152.769 84.7128 154.12 84.1825 155.694 84.1825C157.268 84.1825 158.611 84.7128 159.721 85.7734C160.848 86.8175 161.411 88.0687 161.411 89.527C161.411 91.0019 160.848 92.2696 159.721 93.3303C158.611 94.3743 157.268 94.8963 155.694 94.8963ZM201.215 110.706L191.52 111.303C191.355 110.474 190.998 109.728 190.452 109.065C189.905 108.386 189.184 107.847 188.289 107.45C187.411 107.035 186.358 106.828 185.132 106.828C183.491 106.828 182.108 107.176 180.981 107.872C179.854 108.552 179.29 109.463 179.29 110.607C179.29 111.518 179.655 112.289 180.384 112.918C181.113 113.548 182.364 114.054 184.138 114.435L191.048 115.827C194.76 116.589 197.528 117.815 199.351 119.506C201.174 121.196 202.085 123.417 202.085 126.168C202.085 128.67 201.348 130.866 199.873 132.755C198.414 134.644 196.409 136.119 193.857 137.18C191.322 138.224 188.397 138.746 185.082 138.746C180.028 138.746 176.001 137.693 173.001 135.589C170.018 133.468 168.27 130.584 167.756 126.938L178.172 126.391C178.487 127.933 179.249 129.109 180.459 129.921C181.668 130.717 183.218 131.114 185.107 131.114C186.963 131.114 188.455 130.758 189.581 130.045C190.725 129.316 191.305 128.38 191.322 127.237C191.305 126.275 190.899 125.488 190.104 124.875C189.308 124.245 188.082 123.765 186.425 123.433L179.812 122.116C176.084 121.37 173.308 120.077 171.485 118.238C169.679 116.398 168.775 114.054 168.775 111.203C168.775 108.75 169.438 106.638 170.764 104.864C172.106 103.091 173.987 101.724 176.407 100.763C178.843 99.8016 181.693 99.321 184.958 99.321C189.78 99.321 193.575 100.34 196.343 102.379C199.127 104.417 200.751 107.193 201.215 110.706Z" fill="#FF0000"/>
</svg>
